<?xml version="1.0" encoding="utf-8"?>
<!-- Generator: Adobe Illustrator 21.1.0, SVG Export Plug-In . SVG Version: 6.00 Build 0)  -->
<svg version="1.1" xmlns="http://www.w3.org/2000/svg" xmlns:xlink="http://www.w3.org/1999/xlink" x="0px" y="0px"
	 viewBox="0 0 39.2 56.7" style="enable-background:new 0 0 39.2 56.7;" xml:space="preserve">
<style type="text/css">
	.st0{fill:#FF5840;}
	.st1{fill:#398B7D;}
	.st2{fill:#FFFFFF;}
	.st3{fill:#413C31;}
</style>
<g id="black">
</g>
<g id="Laag_1">
	<g>
		<path class="st0" d="M10.7,45.8L10.7,45.8C10.7,45.8,10.6,45.8,10.7,45.8z"/>
		<path class="st0" d="M19.6,52.3l-0.4,0.3C19.3,52.5,19.4,52.4,19.6,52.3z"/>
		<path class="st0" d="M5.2,35.8L5,35.6C5.2,36,5.2,35.8,5.2,35.8z"/>
		<path class="st0" d="M35.8,27.5L35.8,27.5C35.8,27.5,35.8,27.5,35.8,27.5z"/>
		<path class="st0" d="M1.4,20C1.4,20,1.4,20,1.4,20C1.4,19.7,1.4,19.8,1.4,20z"/>
		<polygon class="st0" points="27.6,42.8 27.6,42.8 27.6,42.8 		"/>
		<path class="st0" d="M27.1,43.5c0.1-0.4,0.2-0.5,0.4-0.7l-0.4,0L27.1,43.5z"/>
		<path class="st0" d="M1.7,25.1c0,0.1,0,0.1,0,0.2C1.7,25.3,1.7,25.2,1.7,25.1z"/>
		<path class="st0" d="M37.2,14.3c-0.1-0.2-0.2-0.4-0.2-0.4c0-0.2-0.1-0.4-0.1-0.5c-0.4-1.2-0.8-2.2-1.4-3.2c0,0,0,0,0.1,0l-0.3-0.4
			c0,0,0,0,0-0.1c0,0,0.2,0.1,0.1,0c0,0-0.1-0.1-0.2-0.2C35,9.2,34.8,9,34.7,8.8c0,0,0,0,0-0.1c0,0,0,0,0,0
			c-0.1-0.2-0.3-0.4-0.4-0.6c0,0,0,0,0-0.1c0,0-0.1-0.1-0.1-0.1c-3.7-5-9.8-7.6-15.7-7.1c-0.4,0-0.8,0.1-1.2,0.2
			c-0.2-0.1-0.5-0.2-0.5-0.3c-0.3,0.2-0.7,0.2-1.1,0.2c-0.5,0-1,0.1-1.4,0.4c-0.2,0,0.2-0.1,0-0.2c-0.2,0.2-0.5,0.3-1,0.5l0.1,0
			c-0.7,0.3-1.3,0.6-1.8,0.8c-0.5,0.3-1.1,0.5-1.9,1l0.2,0C9.2,3.6,9.2,3.6,9,3.7C8.7,4.1,9.9,3,9.7,3.4c-0.3,0-0.8,0.4-1.4,0.8
			c-0.5,0.4-1,0.9-1.2,0.9c-0.5,0.4,0.2,0-0.2,0.4L6.7,5.6l0,0.2C6.4,6.1,6.2,6.1,6.1,6.1C6.2,6,6.3,5.9,6.4,5.8
			C5.9,6.1,5.4,6.9,5.3,7c0.1-0.1,0.3-0.3,0.4-0.4c-1,1.3-2.2,2.9-2.7,4.5L3.1,11c-0.4,1.1-0.4,0.9-0.9,2.1l0-0.1
			c0,0.3-0.1,0.6-0.2,1c0-0.3-0.3,0.6-0.3,0.1c-0.1,0.6-0.1,0.8-0.1,0.9c0,0.1,0.1,0.2,0.1,0.6l-0.1,0.2c0.1,0.3,0.1,0.3,0,1
			c-0.1-0.5-0.2,0.4-0.3-0.2c-0.1,0.7-0.1,1.2-0.1,1.6c0,0.4,0.1,0.7-0.1,1.1c0.3,0.6,0.1-1.2,0.2-0.8c0.1-0.3,0.2,0.5,0.2,0.9
			c0,0.4-0.3,0.8-0.2,1.9c0-0.1,0-0.1,0-0.2c0,0.4,0.2,0.8,0.2,1.3c0.2,0.2,0.1,0.7,0.3,0.7c-0.1-0.3-0.2-0.7-0.2-1
			c0.2,0.6,0.5,1,0.6,2c-0.1-0.1-0.2-0.3-0.3-0.5c0,0.3,0.2,0.5,0.2,0.8c-0.2,0-0.4-1.2-0.6-1.8c0,0.3,0.4,1.1,0.1,0.9
			c0.4,0.4,0.2,1.1,0.7,1.7l-0.1,0c0.1,0.1,0.2,0.3,0.3,0.5l-0.3-0.3c0.3,0.5,0.3,1.2,0.5,1.7c-0.4-1.1,0-0.3,0-0.8
			c0.6,1.3,0,1,0.6,2.3c-0.1-0.2-0.1-0.6,0-0.3c0.1,0.3,0.2,0.7,0.2,0.9c0.5,1,0-0.2,0.3,0.2c0,0.4,0.3,0.5,0.5,0.9l-0.1,0.1
			c0.5,1.2,0.4,0.2,0.8,1.2l-0.4-0.3l0.3,0.5l-0.2,0c0.4,0.5,0.5,0.7,0.7,1.3c0-0.2,0.2,0,0.5,0.4c0.1,0.4-0.2-0.1,0.2,0.6
			c-0.2-0.1-0.3-0.2-0.4-0.6c-0.1,0-0.2-0.1-0.2-0.1c0.1,0.4,0.5,0.9,0.6,1.2c-0.1-0.1-0.1-0.2-0.1-0.3L6.9,35
			c0.1,0.2-0.1,0.1-0.2,0c0.1,0.2,0.3,0.3,0.5,0.6c-0.1,0-0.2,0.1-0.5-0.3l0.7,0.9c0,0.1,0.2,0.5,0.1,0.4c0.3,0.5,1,1.1,1.4,1.9
			c0,0,0.1,0.1,0.2,0.2c0.4,0.6,0.7,1.3,1.3,1.9l0.2,0.5c0.5,0.5-0.2-0.7,0.5,0.2c0.5,0.6,0.1,0.3,0.2,0.6c0.3,0.3,0.9,0.7,1.3,1.4
			c-0.2-0.2-0.3-0.3-0.4-0.5l0.3,0.5c-0.6-0.4-0.8-0.9-0.6-0.4c0.3-0.2,1.5,1.7,1.8,1.5l0.2,0.3c-0.1-0.1-0.1-0.1-0.2-0.2
			c0.4,0.7,0.6,0.3,1.1,1c0.2,0.3,0.3,0.5,0.1,0.3c0.2,0.2,0.4,0.3,0.6,0.5c0.1,0.2,0.1,0.2-0.1,0l0.8,0.8l0,0
			c0.2,0.1,0.5,0.3,0.6,0.4c0.2,0.2-0.1-0.1-0.1,0l0.5,0.4c0.1,0.2-0.3-0.1-0.6-0.4c0.1,0.7,0.4,0.3,1.1,1.4l-0.4-0.4
			c0.1,0.4,0.5,0.7,0.8,1.3c-0.1-0.2-0.7-1.2-0.1-0.8c0.1,0.2,0.3,0.3,0.6,0.6c-0.1,0.1,0.2,0.3,0.5,0.6l-0.1,0.1
			c0.4,0.3,0.4,0.2,0.7,0.4c0.4,0.4,0.3,0.6,0.3,0.7c0.6,0.6-0.2-0.6,0.5,0.1c0.4,0.6,0.8,0.9,1.5,1.4c0.3,0.4-0.1,0,0,0.2l0.4,0.2
			c0.1,0.1,0,0.1,0,0.1c0.3,0.2,0.1-0.1,0.6,0.3c0.1,0,0.3,0.3,0.7,0.8c0.1,0.1,0.2,0.2,0.3,0.4c0.1,0.1,0.2,0.3,0.3,0.1
			c0.2-0.2,0.3-0.5,0.5-0.8c0.2-0.2,0,0.2,0.1,0.2c0.4-0.7,0.6-1,0.6-1.2c0.1-0.2,0.1-0.3,0.2-0.7l0.4-0.5c-0.4,0.4-0.2-0.3,0-0.8
			c0,0,0,0-0.1,0c0-0.1,0.1-0.1,0.1-0.2c0,0,0,0.1,0,0.1l0.1-0.1c0,0,0-0.1,0-0.1c0.1-0.1,0.1-0.3,0.2-0.4c0,0,0,0.1,0,0.3l-0.3,0.2
			c0,0.2,0,0.5,0.1,0.5c0-0.1,0.1-0.2,0.1-0.3c0,0.1,0,0.1,0,0.1c0,0,0-0.1,0.1-0.3l0.3-0.1l0-0.1l0.7-1c0.3-0.8,0.4-1.6,1-2.8
			c0,0.4,0.2,0.2,0.3,0.3c-0.3,0.2-0.5,0.9-0.8,1.5c0.2-0.3,0.2-0.2,0.2-0.1l0.5-1.2c0.1,0.1,0.2-0.2,0.4-0.4
			c-0.4,0.1,0.3-0.9,0.5-1.4c0.1,0,0.1,0.2-0.2,0.7c0.5-0.5,0.2-0.9,0.6-1.4c-0.1,0.1-0.1,0.2-0.1,0.3c0.1-0.3,0.6-1.1,0.6-0.9
			l-0.1,0.1c0.5-0.9,1.5-2.7,1.3-2.9c0,0,0.2,0.2,0.2,0.3l0.1-1.3c0.1-0.1,0.1-0.2,0.2-0.3c0-0.1,0.1-0.1,0.1-0.2
			c0.2,0,0.5,0,0.3,0.6c0.1-0.2,0.3-0.5,0.5-0.9c-0.1,0.1-0.4,0.2-0.4,0c0.5-0.5,0.3-0.3,0.8-0.9c-0.1,0.2-0.3-0.2-0.1-0.5
			c0,0.1,0.3,0.1,0.3,0.2l0.1-1c-0.1,0.2,0.2,0.1,0.4,0c-0.1,0.1,0.3-0.8,0.4-1l-0.2,0.4c0.5-1,0-1.2,0.5-2.2c0,0.1,0.2,0.4,0.5-0.1
			c0-0.2-0.1-0.5-0.1-1c0.1-0.4,0.3-0.8,0.4-1.2c0,0.6,0,1.2,0,1.6c0.2-0.4,0.1-0.1,0.3-0.7c0.2-0.2,0,0.4-0.1,0.5l0.5-1.3
			c-0.2,0,0.2-1.1,0-1.1c-0.1,0.5-0.2,1-0.3,1.5c-0.2,0-0.2-1,0.2-2c0.1-0.2,0.2,0.3,0.3,0.3c0-0.1,0.2-1,0.2-1l0,0.4
			c0.2-0.5,0-1,0.4-1.6c0.1-0.2,0.4-0.6,0.3-0.7c-0.2,0.2-0.5,0.2-0.7,0.2c0.1-0.3,0.1-0.5,0.2-0.8l0.1,0.1l0-0.1l-0.1,0
			c0.1-0.3,0.1-0.5,0.2-0.8c0.2-0.1,0.2,0.7,0.4,0.4c0,0-0.1-0.2-0.1-0.3c0.1-0.2,0.1,0.1,0.2-0.4C37,27,37.4,26,37.1,26.8
			c0.1-0.5,0.1-0.5,0.3-1.1c-0.1,0.1-0.2-0.2-0.2-0.6c0-0.2,0.1-0.4,0.1-0.6c0,0,0,0,0,0c0.2-1,0.4-1.6,0.5-2.6
			c0.1-0.1,0.1-0.6,0.2-0.4c0-0.1-0.1-0.3-0.1-0.6c0.2-0.6,0,0.7,0.2,0.2c-0.1,0-0.1-0.8-0.1-1.3c-0.2,0.1-0.1,1,0,1.5
			c-0.1,0-0.2-0.1-0.2-0.3c0.1-1,0.1-2.1,0-3.1C37.7,17.3,37.4,15.4,37.2,14.3z M26.3,50.8c0.1-0.1,0.2-0.3,0.3-0.4
			C26.6,50.5,26.4,50.7,26.3,50.8z M17.4,48.6c0.2,0,0.3,0.2,0.4,0.4C17.7,48.9,17.4,48.8,17.4,48.6z"/>
		<path class="st0" d="M19.6,52.2C19.5,52.2,19.5,52.2,19.6,52.2C19.4,52.3,19.5,52.3,19.6,52.2z"/>
		<path class="st0" d="M5.3,35.8L5.3,35.8C5.2,35.8,5.2,35.8,5.3,35.8L5.3,35.8z"/>
		<path class="st0" d="M35.1,30.6c-0.1,0.1-0.1,0.2-0.2,0.3C34.9,30.8,35,30.8,35.1,30.6z"/>
		<path class="st0" d="M37.3,15.4c0-0.2,0-0.4-0.1-0.6c0,0.1,0,0.1,0,0.2L37.3,15.4z"/>
		<path class="st0" d="M37.7,21c0,0.2-0.1,0.2-0.1,0.3l0.2,0L37.7,21z"/>
		<path class="st0" d="M37.5,22.7c0,0.1-0.1,0.9,0.1,0.1C37.5,22.8,37.6,22.2,37.5,22.7z"/>
		<path class="st0" d="M31,38c-0.2,0.4-0.3,0.6-0.1,0.5c0.4-0.6,0-0.2,0.4-0.7C31.3,37.6,30.9,38.2,31,38z"/>
		<path class="st0" d="M31,38c0-0.1,0.1-0.1,0.1-0.2C31,37.9,31,38,31,38z"/>
		<path class="st0" d="M12.5,49.3L12.5,49.3c0.1-0.1,0-0.2-0.1-0.4L12.5,49.3z"/>
		<polygon class="st0" points="9.4,44 9.4,43.8 9.3,43.9 		"/>
		<path class="st0" d="M6.6,39.4c0.1,0.2,0.2,0.4,0.3,0.6C6.7,39.6,6.8,39.2,6.6,39.4z"/>
	</g>
	<g>
		<path class="st1" d="M33.7,19.2c0,0.1,0.1,0.1,0.1,0.1C33.8,19.1,33.7,19.2,33.7,19.2z"/>
		<polygon class="st1" points="33.4,17.1 33.5,17.1 33.4,16.8 		"/>
		<path class="st1" d="M33.3,16.2l0.2,0.1c-0.1-0.4-0.3-0.9-0.3-1.3C33,15.3,33.3,15.8,33.3,16.2L33.3,16.2z"/>
		<path class="st1" d="M33.3,14.2c0,0,0-0.1-0.1-0.2C33.2,14,33.2,13.8,33.3,14.2C33.3,14.2,33.3,14.2,33.3,14.2z"/>
		<path class="st1" d="M33.3,14.2C33.4,14.4,33.4,14,33.3,14.2L33.3,14.2z"/>
		<path class="st1" d="M33.1,13.2C33,13,33,13.1,33,13.2l0.2,0.2C33.2,13.4,33.1,13.2,33.1,13.2z"/>
		<path class="st1" d="M32.7,13l0.1,0.1C32.8,13.1,32.8,13.1,32.7,13z"/>
		<path class="st1" d="M32.9,13.3c-0.1,0,0,0,0.1,0.1l-0.2-0.3C32.8,13.2,32.7,13.2,32.9,13.3z"/>
		<path class="st1" d="M32.9,13.7c0.2,0.5,0.3,0.4,0.1-0.1C33,13.8,33.1,14,32.9,13.7z"/>
		<path class="st1" d="M32.9,15.1c0,0.1,0,0.1,0,0.2l0.1,0.2C33,15.3,33,15,32.9,15.1z"/>
		<path class="st1" d="M32.3,11.6c0,0-0.1,0.1-0.1,0.2l0.1,0.2C32.4,11.8,32.3,11.6,32.3,11.6z"/>
		<path class="st1" d="M32.2,11.8L32,11.5C32.2,11.8,32.2,11.8,32.2,11.8z"/>
		<polygon class="st1" points="32.8,13.5 32.5,13 32.5,13.1 		"/>
		<polygon class="st1" points="31.9,10.7 31.6,10.5 31.7,10.6 		"/>
		<path class="st1" d="M31.3,9.9c0.1,0.1,0-0.2,0.1-0.1c-0.1-0.2-0.3-0.3-0.5-0.4C31.1,9.5,31.2,9.7,31.3,9.9z"/>
		<path class="st1" d="M31.8,10.8l0,0.2c0,0,0,0.1,0.1,0.1C31.8,11,31.8,11,31.8,10.8z"/>
		<path class="st1" d="M31.7,11c-0.1-0.1-0.1-0.2-0.1-0.2C31.6,10.8,31.7,10.8,31.7,11L31.7,11z"/>
		<path class="st1" d="M32.3,12.3c-0.1-0.1-0.4-0.4-0.3-0.1C32.1,12.3,32.1,12.1,32.3,12.3z"/>
		<path class="st1" d="M32,11.6c-0.1-0.1-0.2-0.2-0.2-0.3c0,0.1,0.1,0.2,0.1,0.3C31.9,11.6,31.9,11.5,32,11.6z"/>
		<polygon class="st1" points="31.7,11.2 31.8,11.3 31.7,11.2 		"/>
		<path class="st1" d="M31,9.8c-0.1-0.1-0.2-0.2-0.3-0.3c0.1,0.2,0.2,0.3,0.3,0.5C31,9.9,31.1,9.9,31,9.8z"/>
		<polygon class="st1" points="29.5,8.1 29.5,8.2 29.5,8.2 		"/>
		<path class="st1" d="M31.2,10.1c-0.1-0.1-0.1-0.2-0.2-0.3c0,0,0,0,0,0C31,10,31.1,10.1,31.2,10.1z"/>
		<path class="st1" d="M30.5,9.1c0-0.1-0.1-0.2-0.1-0.2C30.4,9,30.4,9.1,30.5,9.1z"/>
		<path class="st1" d="M31.3,10.3L31.3,10.3C31.3,10.2,31.3,10.2,31.3,10.3z"/>
		<path class="st1" d="M31.3,10.3c-0.1-0.1-0.1-0.1-0.2-0.1C31.2,10.2,31.3,10.3,31.3,10.3C31.3,10.3,31.3,10.3,31.3,10.3z"/>
		<path class="st1" d="M29.9,8.6L30,8.7c-0.1-0.1-0.1-0.2-0.2-0.4c-0.2-0.1-0.3-0.1-0.3-0.1L29.9,8.6L29.9,8.6z"/>
		<path class="st1" d="M30,9.2c0.3,0.3,0.2,0.1,0.4,0.3c-0.4-0.5,0.2,0.1-0.1-0.3c0.1,0.1,0.2,0.2,0.2,0.2c-0.1-0.1-0.1-0.2-0.2-0.3
			l0,0l0,0l0,0c0,0,0,0,0,0l0,0c0,0,0,0-0.1,0c-0.1-0.2,0,0,0.1,0c0,0,0,0,0,0l0,0C30.3,9,30.2,8.9,30,8.7c0.1,0.1,0.2,0.2,0.4,0.4
			C30.3,9.2,30,9,30,9.2z"/>
		<path class="st1" d="M31.6,12.1C31.6,12,31.6,12,31.6,12.1C31.6,12,31.6,12,31.6,12.1z"/>
		<path class="st1" d="M31.6,12c0.1,0.1,0.2,0.2,0.1,0l0,0c-0.1-0.2-0.1-0.6-0.1-0.6c-0.1,0.1-0.1,0.2-0.1,0.4
			C31.6,11.8,31.7,11.9,31.6,12C31.7,12.1,31.7,12,31.6,12z"/>
		<path class="st1" d="M30.8,10.4L30.8,10.4c0.2,0.2,0.2,0.1,0.3,0.1c-0.1-0.1-0.2-0.3-0.3-0.4L30.8,10.4z"/>
		<path class="st1" d="M29.6,8c-0.1,0-0.2-0.1-0.3-0.1l0.2,0.1L29.6,8z"/>
		<polygon class="st1" points="29,7.5 28.9,7.5 29,7.6 		"/>
		<path class="st1" d="M12.8,5.8l0.1,0.1c0.1-0.1,0.2-0.1,0.3-0.2C13,5.8,12.7,5.7,12.8,5.8z"/>
		<path class="st1" d="M22.7,4.5c-0.2-0.1-0.3-0.1-0.5-0.2C22.5,4.5,22.7,4.6,22.7,4.5z"/>
		<path class="st1" d="M7,24.1c0.1,0.1,0.1,0.1,0.1,0.1C7,24.1,7,24,7,24.1z"/>
		<path class="st1" d="M22.3,4.3c-0.2-0.1-0.4-0.1-0.6-0.1c0,0,0.1,0,0.1,0C22,4.3,22.1,4.3,22.3,4.3z"/>
		<path class="st1" d="M33.3,21.4c0,0,0-0.1,0-0.3C33.3,21.2,33.3,21.3,33.3,21.4z"/>
		<path class="st1" d="M26.7,6C26.9,6,26.8,6,26.7,6L26.7,6z"/>
		<path class="st1" d="M26.9,6.1c0,0,0.1,0.1,0.1,0.1C27,6.1,27,6.1,26.9,6.1z"/>
		<path class="st1" d="M26.7,6c0,0-0.1,0-0.2-0.1C26.6,5.9,26.7,6,26.7,6C26.7,6,26.7,6,26.7,6z"/>
		<path class="st2" d="M33.4,19.6l0,0.3c-0.1-0.2-0.2-0.1-0.4,0.1c0-0.3,0.1-0.5,0.1-0.8c0.3-3.8-1.1-7.4-3.5-10c0,0,0,0,0,0l0-0.1
			c-0.1-0.1-0.2-0.2-0.2-0.1c-0.1-0.1-0.2-0.2-0.3-0.3c0.3,0.1,0.4-0.2,0.3-0.6c0,0-0.1,0.1-0.4-0.1c0.1,0.1,0.4,0.6,0.1,0.5
			c-0.3-0.3-0.2-0.3-0.3-0.4c0,0.2-0.4-0.1-0.5,0c-0.6-0.5-1.3-1-2-1.4c0,0,0,0,0-0.1l-0.2-0.1c-0.1-0.2,0.5,0.1,0.2-0.1
			c0.3,0.1,0.7,0.1,1,0.5l0,0.2c0,0-0.2-0.3-0.3-0.3c0.2,0,0.4,0.6,0.7,0.5L27.6,7c0.3,0.1,0.8,0.2,1,0.5c0-0.3-0.1,0-0.2-0.4
			c0.1,0.3-0.8-0.6-0.7-0.2c-0.1-0.4-0.3-0.4-0.6-0.8c0,0.1,0.1,0.2-0.2,0c0,0-0.1,0-0.1,0c0,0,0,0,0,0l0,0c0,0,0,0,0,0
			C27,6.2,27,6.3,27,6.3c-0.2,0-0.7-0.2-0.9-0.3c-0.2-0.1,0.1,0,0-0.1c-0.1,0-0.2,0-0.3,0c0-0.1-0.4-0.4,0.1-0.3l-0.4-0.2
			c-0.2-0.2-0.5-0.3-0.7-0.4C24.7,5,24.3,5,24.5,5l-0.7-0.1l0,0c-0.3-0.1-0.7-0.1-1-0.2c-0.3,0-0.7-0.2-1.1-0.3
			c-0.2,0-0.5,0-0.8-0.1l-0.1-0.1c-0.3,0-0.9-0.1-1,0c-0.3-0.3-1.4,0-1.9,0l0,0.1c-0.3,0-0.7,0.1-1.1,0.3L17,4.6
			c-0.3,0.1-0.9,0.1-1.5,0.3c0-0.1,0.2-0.1,0.3-0.1c-0.4,0-0.7,0.1-1,0.3c-0.3,0.2-0.6,0.4-0.9,0.4c-0.1,0.1-0.2,0.1-0.3,0.2
			c0,0,0,0,0,0c0,0,0,0-0.1,0c-0.1,0-0.2,0-0.2,0c0.1,0,0.1,0,0.2,0C13.3,5.8,13.2,5.9,13,6l-0.1-0.1c0,0,0,0,0,0
			c-0.2,0-0.1,0.1,0,0.2c-0.1,0.1-0.1,0.1-0.2,0.2c-0.2-0.1-0.4,0.3-0.6,0.2c0,0.1-0.2,0.2-0.4,0.4c-0.2,0.2-0.3,0.3-0.3,0.5
			c0,0-0.1,0,0-0.1c-0.2,0.1-0.3,0.2-0.4,0.4l-0.2-0.1c-0.1,0.1-0.1,0.3-0.2,0.5c-0.3,0.1-0.4,0.1-0.3-0.1C10,8.5,10,8.3,9.8,8.8
			L9.7,8.7C9.6,8.9,9.5,9.2,9.4,9.2c-0.5,0.2-1.3,1.6-2,2.5c0.4,0-0.4,0.4-0.1,0.6c-0.1,0-0.2,0.1-0.2,0c-0.2,0.6-0.5,0.7-0.4,1.2
			c-0.1,0-0.1-0.2-0.1-0.1c0,0,0,0.2-0.1,0.2c-0.1,0,0-0.1,0-0.2c-0.2,0.6,0,0.7,0.2,0.8c-0.2,0.2-0.2,0.4-0.1,0.6
			c-0.1,0.1-0.2,0.2-0.2-0.1c-0.1,0.2-0.4,1.2-0.2,1.2c-0.1,0.1,0,0.3,0,0.3C6.1,16.7,6,16.7,6,17.1L6,17c0.2,0.2,0,0.4,0,0.7l0,0
			c-0.2,0.8,0,0.3-0.1,1.2l0.1,0c0.3,0.1-0.1,0.7,0,1.2l0.1-0.2c0.1,0.2-0.3,0.8-0.3,1c0,0.1-0.1-0.1-0.1-0.2c0,0.7,0.2,0.1,0.3,0.5
			c-0.1,0.1-0.3-0.1-0.2,0.3c0,0.2,0.6,0.9,0.5,1.4c0-0.1,0.1-0.2,0.2,0c0.2,0.3,0.1,1,0.4,1.2c0,0,0,0.1,0,0.1
			c0.2,0.2,0.5,0.8,0.7,0.8c-0.3,0.5,1.1,1.3,0.8,1.5l0.5,0.7l0,0c0.3,0.4,0.6,0.5,0.7,0.6c0.1,0.1,0,0.1-0.1,0.1
			c0.5,0.6,0.6,0.7,1.2,0.9l0,0.2c0.2,0.1,0.8,0.9,1.5,1.2c0,0,0,0-0.1,0c0.4,0.1,0.8,0.5,1.2,0.8c0.4,0.2,0.7,0.4,1,0.2
			c0.2,0,0.4,0.1,0.6,0.1c-0.7-0.3,0.2-0.2-0.1-0.3c0.3,0.1,0.6,0.4,0.3,0.3l0,0c-0.2,0.2,0.8,0.4,0.8,0.5c1.4,0.4,2.8,0.6,4.2,0.6
			L20,32c0.2,0,0.3,0,0.5,0c0.1,0,0.2,0.1-0.2,0.2c0.2,0.1,0.6-0.1,0.6-0.2c0.7,0-0.2,0.3,0,0.2l0.3,0l-0.1,0
			c0.2-0.1,0.2-0.2,0.6-0.2c0.3,0,0.2,0.1,0.3,0.1c0,0,0,0,0.2,0l0.6-0.1l-0.3-0.1c0.2-0.1,0.6-0.1,0.2-0.2c0.2,0.1,0.8,0,1.3-0.2
			c0.5-0.2,1-0.4,1.1-0.4c0.3-0.2,0.6-0.4,1-0.6c-0.1,0-0.3-0.1,0.1-0.3c0.1,0.4,0.7-0.2,1.1-0.2c-0.2,0,0.1-0.2,0.3-0.3
			c0.2-0.2,0.4-0.3,0.1-0.3c0.3-0.2,0.1,0.1,0.3,0c0.5-0.6,1.4-1,2-1.8c0,0-0.2,0-0.1-0.2l0.5-0.2c0.1-0.2-0.1-0.3,0.2-0.5
			c-0.1,0-0.2,0-0.1-0.1c0.7-0.7,1.1-1.5,1.5-2.4c0.2-0.4,0.4-0.9,0.6-1.3c0.2-0.4,0.4-0.9,0.6-1.3c-0.2,0.2-0.1,0.1-0.1-0.1
			c-0.1,0.1-0.1,0-0.2,0c0.1-0.2,0.2-0.5,0.4-0.7C33.3,20.4,33.5,19.7,33.4,19.6z M6.9,14.5C6.8,14.5,6.8,14.4,6.9,14.5
			C6.8,14.5,6.8,14.5,6.9,14.5c0,0.1,0,0.1-0.1,0.2c-0.1,0.1-0.1,0.1-0.2,0.2c0-0.2,0-0.4,0.1-0.6C6.7,14.2,6.8,14.3,6.9,14.5
			c0-0.1,0-0.2,0-0.2c0.1-0.1,0.1-0.1,0.1-0.1C6.9,14.3,6.9,14.4,6.9,14.5z M10.6,8.5c0-0.1,0-0.3,0.1-0.4c0,0.1,0.1,0.1,0.2,0.2
			C10.7,8.3,10.6,8.4,10.6,8.5z M15.1,5.7c-0.2,0.1-0.5,0.2-0.7,0.3c0.1-0.2,0.3-0.5,0.5-0.6l0.1,0c0.1-0.1,0.3-0.2,0.4-0.3
			C15.4,5.2,15.2,5.5,15.1,5.7z M17.9,5l0-0.2L17.9,5c-0.2,0-0.4,0.1-0.5,0.1c0-0.2,0-0.3,0-0.4c0.1,0,0.8,0.1,1,0.2
			c0,0,0,0,0.1,0.1C18.2,4.9,18.1,5,17.9,5z M19.8,4.9c0.1-0.1,0.2-0.1,0.3-0.1c0,0,0,0.1,0.1,0.1C20.1,4.9,20,4.9,19.8,4.9z
			 M25.3,5.4C25.3,5.4,25.3,5.4,25.3,5.4C25.1,5.2,25.1,5.3,25.3,5.4z M22,32L22,32C22.1,31.9,22.1,31.9,22,32z M25.1,5.9
			c-0.4-0.1-0.5-0.3-0.8-0.4l0.3,0.2c-0.1,0-0.4,0-0.5-0.1c0,0,0.1,0.1,0.2,0.1c-0.6-0.2-1.2-0.4-1.9-0.5C22.5,5,22.9,5,23.3,5
			c0.5,0.1,0.2,0.2,0.3,0.2c0.9,0.4,0.9-0.2,1.6,0.3C25.4,5.8,25.1,5.8,25.1,5.9z M28.7,8.3C28.7,8.3,28.6,8.3,28.7,8.3L28.7,8.3
			C28.7,8.3,28.7,8.3,28.7,8.3z M28.8,8.4c0.1,0,0.3,0.2,0.4,0.3C29,8.6,28.9,8.5,28.8,8.4z"/>
		<path class="st1" d="M28,6.8C28,6.8,28,6.7,28,6.8l-0.2-0.2C27.9,6.7,27.9,6.7,28,6.8z"/>
		<path class="st1" d="M28,7.3c-0.1,0.1,0.1,0.2,0.3,0.3l0,0C28.4,7.5,28.2,7.4,28,7.3z"/>
		<path class="st1" d="M28.5,7.7c0.1,0-0.1-0.1-0.2-0.1C28.4,7.6,28.5,7.7,28.5,7.7z"/>
		<path class="st1" d="M26.4,5.8c0.2-0.1-0.7-0.2-0.2,0C26.4,5.9,26.4,5.7,26.4,5.8z"/>
		<polygon class="st1" points="27.9,7.7 27.9,7.5 27.8,7.5 		"/>
		<path class="st1" d="M26.9,6.9c0,0,0.1,0,0.1,0c-0.2-0.1-0.4-0.2-0.4-0.2L26.9,6.9z"/>
		<path class="st1" d="M27.2,7c0,0-0.2-0.1-0.2-0.1C27.1,6.9,27.1,7,27.2,7z"/>
		<path class="st1" d="M23.1,5.3c0.1,0,0.2,0,0.2-0.1l-0.4,0C22.9,5.2,23,5.3,23.1,5.3z"/>
		<polygon class="st1" points="33.6,20.1 33.7,19.8 33.6,20 		"/>
		<path class="st1" d="M33.7,19.5l-0.1-0.2c0,0.1,0,0.2,0,0.2L33.7,19.5z"/>
	</g>
	<g>
		<path class="st1" d="M30.5,19c0,0.1,0.1,0.1,0.2,0.1C30.6,18.9,30.4,19,30.5,19z"/>
		<polygon class="st1" points="30.1,17.3 30.2,17.4 30,17.1 		"/>
		<path class="st1" d="M30,16.7L30,16.7l0.2,0.1c-0.1-0.3-0.3-0.7-0.3-0.9C29.7,16,30,16.4,30,16.7z"/>
		<path class="st1" d="M30.2,15.1c0,0,0-0.1,0-0.2C30.1,15,30.1,14.8,30.2,15.1C30.2,15.1,30.2,15.1,30.2,15.1z"/>
		<path class="st1" d="M30.2,15.1C30.3,15.2,30.3,15,30.2,15.1L30.2,15.1z"/>
		<path class="st1" d="M30.2,14.4c-0.1-0.2-0.2-0.1-0.2,0l0.2,0.2C30.1,14.5,30.1,14.3,30.2,14.4z"/>
		<path class="st1" d="M29.7,14.3L29.7,14.3C29.8,14.3,29.8,14.3,29.7,14.3z"/>
		<path class="st1" d="M29.8,14.4c-0.1,0,0,0,0.1,0.1L29.8,14.4C29.7,14.4,29.7,14.4,29.8,14.4z"/>
		<path class="st1" d="M29.8,14.8c0.1,0.4,0.3,0.3,0.1-0.1C29.9,14.8,29.9,15,29.8,14.8z"/>
		<path class="st1" d="M29.6,15.8c0,0.1,0,0.1,0,0.2l0.1,0.1C29.6,16.1,29.7,15.8,29.6,15.8z"/>
		<path class="st1" d="M29.5,13.1c-0.1,0-0.1,0.1-0.1,0.2l0.1,0.1C29.5,13.3,29.4,13.1,29.5,13.1z"/>
		<path class="st1" d="M29.4,13.3l-0.2-0.2C29.3,13.3,29.3,13.3,29.4,13.3z"/>
		<polygon class="st1" points="29.4,14.3 29.4,14.3 29.7,14.6 		"/>
		<polygon class="st1" points="29.2,12.3 28.9,12.2 29,12.3 		"/>
		<path class="st1" d="M28.7,11.8c0.1,0,0.1-0.2,0.2-0.2c-0.1-0.1-0.3-0.2-0.4-0.2C28.6,11.5,28.6,11.6,28.7,11.8z"/>
		<path class="st1" d="M29,12.5l-0.1,0.2c0,0,0,0.1,0,0.1C29,12.7,29.1,12.6,29,12.5z"/>
		<path class="st1" d="M28.9,12.6c-0.1-0.1-0.1-0.1-0.1-0.2C28.9,12.5,28.9,12.6,28.9,12.6L28.9,12.6z"/>
		<path class="st1" d="M29,13.7c0.1,0,0.1-0.1,0.3,0C29.2,13.6,29,13.4,29,13.7z"/>
		<path class="st1" d="M29.1,13.1C29,13.1,29,13,28.9,12.9c0,0.1,0.1,0.2,0.1,0.2C29,13.2,29.1,13.1,29.1,13.1z"/>
		<polygon class="st1" points="28.9,12.9 28.8,12.9 28.9,12.9 		"/>
		<path class="st1" d="M28.4,11.7c-0.1,0-0.2-0.1-0.3-0.2c0.1,0.1,0.1,0.3,0.2,0.4C28.4,11.8,28.5,11.8,28.4,11.7z"/>
		<polygon class="st1" points="27.2,10.5 27.2,10.5 27.2,10.5 		"/>
		<path class="st1" d="M28.5,12c-0.1-0.1-0.1-0.1-0.2-0.2c0,0,0,0,0,0C28.4,12,28.4,12,28.5,12z"/>
		<path class="st1" d="M28,11.2c0-0.1,0-0.2-0.1-0.2C27.9,11.1,28,11.2,28,11.2z"/>
		<path class="st1" d="M28.6,12.1L28.6,12.1C28.7,12.1,28.7,12.1,28.6,12.1z"/>
		<path class="st1" d="M28.6,12.1c0,0-0.1-0.1-0.2-0.1C28.5,12.1,28.6,12.1,28.6,12.1C28.6,12.1,28.6,12.1,28.6,12.1z"/>
		<path class="st1" d="M27.5,10.9L27.5,10.9c0,0,0-0.1,0-0.3c-0.2-0.1-0.2-0.1-0.3,0L27.5,10.9L27.5,10.9z"/>
		<path class="st1" d="M27.9,11.3c-0.2,0-0.4-0.1-0.4,0.1c0.2,0.2,0.2,0.1,0.4,0.2C27.6,11.2,28,11.6,27.9,11.3
			c0.1,0.1,0.1,0.1,0.2,0.2C28,11.4,28,11.3,27.9,11.3L27.9,11.3L27.9,11.3L27.9,11.3C28,11.3,28,11.3,27.9,11.3L27.9,11.3
			C27.9,11.3,27.9,11.3,27.9,11.3C27.8,11.2,27.9,11.2,27.9,11.3L27.9,11.3L27.9,11.3c0-0.1-0.2-0.2-0.3-0.3
			C27.7,11,27.7,11.1,27.9,11.3z"/>
		<path class="st1" d="M28.6,13.6c0.1,0,0.2,0.2,0.2-0.1l0,0c0-0.2,0-0.5,0.1-0.5c-0.1,0.1-0.2,0.2-0.2,0.4c0,0,0.1,0,0.1,0.1
			C28.7,13.7,28.6,13.6,28.6,13.6z"/>
		<path class="st1" d="M28,12.3L28,12.3c0.2,0.1,0.2,0.1,0.3,0c-0.1-0.1-0.2-0.2-0.3-0.3L28,12.3z"/>
		<path class="st1" d="M27.4,10.3c-0.1,0-0.2,0-0.3,0l0.2,0.1L27.4,10.3z"/>
		<polygon class="st1" points="26.9,10 26.8,10 26.8,10.1 		"/>
		<path class="st1" d="M14.3,8.7l0.1,0.1c0.1-0.1,0.2-0.1,0.3-0.1C14.5,8.6,14.3,8.5,14.3,8.7z"/>
		<path class="st1" d="M22,7.7c-0.1-0.1-0.2-0.1-0.3-0.2C21.9,7.7,22,7.8,22,7.7z"/>
		<path class="st1" d="M21.3,7.5C21.3,7.5,21.3,7.5,21.3,7.5c0.2,0,0.3,0,0.4,0.1C21.6,7.5,21.4,7.4,21.3,7.5z"/>
		<path class="st1" d="M25.3,8.9C25.3,8.9,25.3,8.9,25.3,8.9C25.4,8.9,25.4,8.9,25.3,8.9z"/>
		<path class="st1" d="M25.1,8.8c0,0-0.1,0-0.1-0.1C25,8.7,25.1,8.8,25.1,8.8C25.1,8.8,25.1,8.8,25.1,8.8z"/>
		<path class="st1" d="M30,20.6c-0.1,0.1-0.1,0-0.2,0c0.1-0.2,0.2-0.4,0.4-0.5c-0.2-0.1,0.1-0.7-0.1-0.7l0,0.2
			c-0.1-0.2-0.3-0.1-0.5,0c0-0.2,0.1-0.4,0.1-0.6c0.2-2.8-0.8-5.5-2.6-7.4c0,0,0,0,0,0l0.1-0.1c-0.1-0.1-0.2-0.1-0.1,0
			c-0.1-0.1-0.2-0.2-0.2-0.3c0.2,0.1,0.4-0.3,0.5-0.7c0,0-0.1,0.1-0.3,0c0,0.1,0.3,0.5,0,0.4c-0.3-0.2-0.2-0.2-0.2-0.4
			c0,0.2-0.4,0-0.5,0.1c-0.5-0.4-1-0.8-1.5-1.1c0,0,0.1,0,0,0l-0.2-0.1c-0.1-0.2,0.4,0,0.2-0.2c0.3,0,0.6,0,0.8,0.3l-0.1,0.2
			c0-0.1-0.1-0.2-0.2-0.2c0.2,0,0.2,0.5,0.5,0.4l-0.1-0.3c0.3,0.1,0.7,0,0.8,0.3c0-0.3-0.1,0-0.1-0.4c0,0.4-0.6-0.5-0.6,0
			c0-0.4-0.2-0.3-0.4-0.7c0,0.1,0,0.2-0.2,0c0,0-0.1,0-0.1,0l0,0l0,0c0,0,0,0,0,0c0,0.1,0.1,0.1,0.1,0.2C25.1,9.2,24.8,9,24.6,9
			c-0.1-0.1,0.1,0,0.1-0.2c-0.1,0-0.2,0-0.2,0c0.1-0.1-0.3-0.4,0.1-0.3l-0.3-0.1c-0.1-0.2-0.4-0.3-0.6-0.3c-0.1-0.1-0.4,0-0.3,0
			L22.9,8l0,0c-0.5-0.2-1.1,0-1.6-0.4c-0.2,0-0.4,0-0.6,0l0-0.1c-0.2,0-0.7-0.2-0.8,0c-0.2-0.4-1.1-0.1-1.5-0.1l0,0.2
			c-0.3,0-0.5,0.1-0.8,0.3l0.1,0.2C17.4,8,16.9,7.9,16.5,8c0-0.1,0.1-0.1,0.2-0.1c-0.6-0.2-1,0.6-1.5,0.6C15.1,8.6,15,8.6,15,8.6
			c0,0,0,0,0,0c0,0,0,0,0,0c-0.1,0-0.1,0-0.2,0c0.1,0,0.1,0,0.2,0c-0.1,0-0.2,0.1-0.3,0.2l-0.1-0.1c0,0,0,0,0,0
			c-0.2,0-0.1,0.1,0.1,0.2c0,0.1-0.1,0.1-0.1,0.2c-0.2-0.2-0.3,0.3-0.5,0.1c0,0.2-0.5,0.5-0.4,0.8c0,0-0.1,0,0-0.1
			c-0.1,0.1-0.3,0.1-0.3,0.3L13,10.1c0,0.1,0,0.3-0.1,0.4c-0.2,0-0.3,0-0.3-0.2c-0.2,0.5-0.2,0.3-0.3,0.8L12.2,11
			c-0.1,0.1-0.1,0.4-0.2,0.4c-0.4,0.1-1,1.2-1.6,1.9c0.4,0-0.3,0.3-0.1,0.4c-0.1,0-0.2,0.1-0.2-0.1c-0.1,0.4-0.4,0.5-0.3,0.9
			c-0.1,0-0.1-0.1-0.2-0.1c0,0,0,0.2,0,0.2c-0.1,0-0.1-0.1-0.1-0.2c-0.1,0.4,0.1,0.6,0.4,0.7c-0.2,0.2-0.2,0.3-0.1,0.5
			c-0.1,0-0.2,0.2-0.2-0.1c0,0.1-0.3,0.9-0.1,0.9c-0.1,0,0,0.2,0,0.3c-0.1,0.3-0.1,0.4-0.1,0.7l0-0.1c0.3,0.2,0,0.3,0.1,0.5l0,0
			c-0.2,0.6,0.1,0.3-0.1,0.9l0.2,0c0.4,0-0.2,0.5,0,0.9l0.1-0.1c0.1,0.2-0.4,0.6-0.4,0.8c0,0-0.1-0.1-0.1-0.1
			c-0.1,0.6,0.2,0,0.4,0.4c-0.1,0.1-0.3,0-0.3,0.2c-0.1,0.2,0.6,0.6,0.5,1c0.1-0.1,0.1-0.2,0.2-0.1c0.1,0.2-0.1,0.8,0.3,0.9
			c0,0,0,0.1,0,0.1c0.2,0.2,0.4,0.5,0.6,0.6c-0.4,0.5,0.9,0.9,0.5,1.2l0.4,0.5l-0.1,0c0.2,0.3,0.4,0.3,0.6,0.4c0,0.1,0,0.1-0.1,0.1
			c0.3,0.5,0.4,0.5,1,0.6L13,26.3c0.1,0,0.5,0.8,1.1,0.9c0,0,0,0-0.1,0c0.3,0.1,0.6,0.4,0.9,0.6c0.3,0.2,0.6,0.3,0.8,0.1
			c0.1,0,0.3,0,0.5,0c-0.5-0.2,0.2-0.2,0-0.4c0.2,0,0.5,0.4,0.2,0.3l0,0c-0.2,0.3,0.6,0.3,0.5,0.5c1.1,0.3,2.1,0.6,3.2,0.6L20,28.6
			c0.1,0,0.2,0,0.4,0c0.1,0.1,0.1,0.2-0.1,0.2c0.1,0.1,0.4-0.2,0.4-0.2c0.5,0.1-0.2,0.3,0,0.3l0.2,0l-0.1,0c0.2-0.1,0.2-0.2,0.5-0.3
			c0.2,0,0.1,0.1,0.2,0.1c0,0,0,0,0.1,0l0.5-0.1l-0.2-0.2c0.2-0.1,0.4-0.1,0.2-0.3c0.2,0.1,0.6,0.1,1-0.1c0.4-0.1,0.7-0.3,0.8-0.3
			c0.2-0.2,0.4-0.4,0.8-0.5c-0.1,0-0.2-0.2,0-0.3c0.1,0.5,0.6-0.1,0.9,0.1c-0.3-0.1,0.7-0.5,0.2-0.6c0.2-0.1,0.1,0.1,0.3,0.1
			c0.4-0.5,1.1-0.7,1.6-1.3c0,0-0.2,0-0.2-0.2l0.5-0.1c0.1-0.1-0.2-0.3,0.1-0.4c-0.1,0-0.2,0-0.1-0.1c0.5-0.5,0.9-1.1,1.2-1.8
			c0.3-0.7,0.5-1.3,1-2C30,20.9,30,20.8,30,20.6z M26.7,11.2c-0.1-0.1-0.2-0.2-0.3-0.3C26.5,10.9,26.7,11,26.7,11.2z M26.4,10.9
			C26.4,10.9,26.4,10.9,26.4,10.9C26.3,10.9,26.3,10.9,26.4,10.9L26.4,10.9z M24,8.4C24,8.4,24,8.4,24,8.4C23.8,8.2,23.9,8.3,24,8.4
			z M22.6,8.4c0.7,0.3,0.8-0.3,1.3,0.1c0.1,0.3-0.1,0.4-0.1,0.5c-0.3-0.1-0.4-0.3-0.6-0.4l0.2,0.2c-0.1,0-0.3,0-0.4-0.1
			c0,0,0.1,0.1,0.1,0.1c-0.5-0.2-0.9-0.3-1.4-0.4c0.2-0.2,0.4-0.3,0.8-0.3C22.8,8.3,22.5,8.5,22.6,8.4z M20.1,8.2c0,0.1,0,0.1,0,0.2
			c-0.1,0-0.2,0-0.3,0C19.9,8.2,20,8.2,20.1,8.2z M18.7,8.3C18.7,8.3,18.7,8.3,18.7,8.3c-0.1,0.1-0.2,0.1-0.3,0.1l0-0.3l0,0.3
			c-0.1,0-0.2,0-0.3,0.1c0-0.2-0.1-0.4,0-0.5C18,8,18.6,8.1,18.7,8.3z M16.2,8.5c0.1-0.1,0.2-0.2,0.3-0.2c-0.1,0.1-0.1,0.4-0.2,0.6
			c-0.2,0.1-0.3,0.1-0.5,0.2c0.1-0.3,0.2-0.5,0.3-0.7L16.2,8.5z M13.1,10.8c-0.1,0.1-0.1,0.1-0.2,0.2c0-0.1,0-0.3,0-0.4
			C12.9,10.7,13,10.7,13.1,10.8z M10.1,15.4C10.1,15.4,10.1,15.3,10.1,15.4c0-0.1,0.1-0.1,0.1-0.1C10.2,15.3,10.2,15.4,10.1,15.4
			C10.2,15.4,10.2,15.4,10.1,15.4c0,0,0,0.1,0,0.1c0,0,0,0.1,0,0.1c-0.1,0-0.1,0.1-0.2,0.1c0-0.1,0-0.3,0-0.4
			C10,15.2,10.1,15.3,10.1,15.4z M21.5,28.7L21.5,28.7C21.6,28.6,21.5,28.6,21.5,28.7z"/>
		<path class="st1" d="M26.1,9.4C26.1,9.4,26.1,9.3,26.1,9.4l-0.1-0.2C26,9.3,26,9.4,26.1,9.4z"/>
		<path class="st1" d="M26,9.9c-0.1,0.1,0.1,0.2,0.2,0.3c0,0,0,0,0,0C26.3,10.1,26.2,10,26,9.9z"/>
		<path class="st1" d="M26.2,10.2c0,0,0.1,0.1,0.1,0.1C26.4,10.3,26.3,10.3,26.2,10.2z"/>
		<path class="st1" d="M24.8,8.7c0.1,0.1,0.1-0.1,0.1-0.1C25.1,8.5,24.3,8.6,24.8,8.7z"/>
		<polygon class="st1" points="25.8,10.4 25.9,10.2 25.7,10.3 		"/>
		<path class="st1" d="M25.1,9.7c-0.1-0.1-0.3-0.2-0.3-0.2L25.1,9.7C25.1,9.7,25.1,9.7,25.1,9.7z"/>
		<path class="st1" d="M22.2,8.6c0.1,0,0.2,0,0.2-0.1l-0.3,0C22.1,8.5,22.1,8.6,22.2,8.6z"/>
		<polygon class="st1" points="30.4,19.6 30.5,19.4 30.4,19.6 		"/>
		<path class="st1" d="M30.4,19.2L30.2,19c0,0,0,0.1,0,0.2L30.4,19.2z"/>
	</g>
	<g>
		<path class="st3" d="M27.3,18.8c0-0.1-0.2-0.1-0.2-0.1C27.1,18.8,27.3,18.8,27.3,18.8z"/>
		<polygon class="st3" points="26.8,17.6 26.6,17.5 26.8,17.6 		"/>
		<path class="st3" d="M26.6,17.2l0.2,0c-0.1-0.2-0.3-0.5-0.2-0.6C26.3,16.8,26.7,17,26.6,17.2L26.6,17.2z"/>
		<path class="st3" d="M27.1,16C27.1,16,27.1,16,27.1,16c0-0.1,0-0.1,0-0.1C27,16,26.9,15.8,27.1,16z"/>
		<path class="st3" d="M27.1,16C27.1,16.1,27.2,15.9,27.1,16L27.1,16z"/>
		<path class="st3" d="M27.1,15.5c-0.1-0.1-0.2-0.1-0.2,0l0.2,0.1C27.1,15.6,27,15.4,27.1,15.5z"/>
		<path class="st3" d="M26.6,15.5L26.6,15.5C26.7,15.5,26.7,15.5,26.6,15.5z"/>
		<path class="st3" d="M26.7,15.6C26.6,15.6,26.7,15.6,26.7,15.6L26.7,15.6C26.6,15.6,26.6,15.6,26.7,15.6z"/>
		<path class="st3" d="M26.8,15.7c0,0.1,0,0.2-0.2,0.1C26.8,16.1,26.9,16,26.8,15.7z"/>
		<path class="st3" d="M26.3,16.6l-0.1,0.1l0.1,0.1C26.3,16.8,26.4,16.6,26.3,16.6z"/>
		<path class="st3" d="M26.6,14.6c-0.1,0-0.1,0.1-0.2,0.2l0.1,0.1C26.5,14.8,26.5,14.6,26.6,14.6z"/>
		<path class="st3" d="M26.4,14.8l-0.2-0.1C26.3,14.8,26.4,14.8,26.4,14.8z"/>
		<polygon class="st3" points="26.3,15.5 26.3,15.6 26.6,15.7 		"/>
		<polygon class="st3" points="26.3,14 26.5,14 26.2,14 		"/>
		<path class="st3" d="M26,13.7c0.1,0,0.1-0.2,0.2-0.2c-0.1-0.1-0.2-0.1-0.4-0.1C26,13.4,26,13.5,26,13.7z"/>
		<path class="st3" d="M26.2,14.2l-0.1,0.1c0,0,0,0,0,0.1C26.2,14.4,26.2,14.3,26.2,14.2z"/>
		<path class="st3" d="M26,14.2c0,0,0,0.1,0.1,0.1l0,0C26.1,14.3,26.1,14.3,26,14.2z"/>
		<path class="st3" d="M26.3,15.1c-0.1,0-0.3-0.2-0.4,0.1C26.1,15.2,26.1,15.1,26.3,15.1z"/>
		<path class="st3" d="M26,14.8c0,0,0.1-0.1,0.1-0.1c-0.1,0-0.1-0.1-0.2-0.1C26,14.7,26,14.7,26,14.8z"/>
		<polygon class="st3" points="25.9,14.6 26,14.6 26,14.5 		"/>
		<path class="st3" d="M25.7,13.7c-0.1,0-0.2-0.1-0.2-0.1c0,0.1,0.1,0.2,0.1,0.3C25.7,13.8,25.8,13.8,25.7,13.7z"/>
		<polygon class="st3" points="24.9,12.9 24.9,12.9 24.9,12.9 		"/>
		<path class="st3" d="M25.6,13.9c0,0.1,0.1,0.1,0.1,0.1C25.7,13.9,25.7,13.9,25.6,13.9C25.6,13.8,25.6,13.8,25.6,13.9z"/>
		<path class="st3" d="M25.4,13.2c0,0.1,0,0.1,0,0.2C25.5,13.3,25.5,13.2,25.4,13.2z"/>
		<path class="st3" d="M25.9,14C25.9,14,25.9,14,25.9,14C25.9,13.9,25.9,13.9,25.9,14z"/>
		<path class="st3" d="M25.9,14c0,0-0.1,0-0.1,0C25.8,14,25.9,14,25.9,14C25.9,14,25.9,14,25.9,14z"/>
		<path class="st3" d="M25.1,13.2L25.1,13.2c0,0,0-0.1,0.1-0.3c-0.1,0-0.2,0-0.2,0L25.1,13.2L25.1,13.2z"/>
		<path class="st3" d="M25.4,13.4c-0.2,0.1-0.3,0-0.4,0.2c0.1,0.1,0.2,0,0.3,0.1C25.1,13.5,25.4,13.7,25.4,13.4c0,0,0.1,0.1,0.1,0.1
			C25.5,13.5,25.5,13.4,25.4,13.4L25.4,13.4L25.4,13.4L25.4,13.4C25.4,13.4,25.4,13.4,25.4,13.4L25.4,13.4
			C25.4,13.4,25.4,13.4,25.4,13.4C25.3,13.3,25.4,13.4,25.4,13.4L25.4,13.4L25.4,13.4c0-0.1-0.1-0.2-0.2-0.2
			C25.2,13.3,25.3,13.3,25.4,13.4z"/>
		<path class="st3" d="M25.5,15.2C25.5,15.2,25.5,15.2,25.5,15.2C25.5,15.2,25.5,15.2,25.5,15.2z"/>
		<path class="st3" d="M25.5,15.1c0,0,0.1,0,0.1,0.1c0,0.1-0.1,0-0.1,0.1c0.1,0,0.2,0.1,0.2-0.1l0,0c0-0.1,0.1-0.4,0.1-0.4
			C25.7,14.8,25.6,14.9,25.5,15.1z"/>
		<path class="st3" d="M25.2,14.3L25.2,14.3c0.1,0.1,0.2,0,0.3,0c-0.1-0.1-0.1-0.1-0.2-0.2L25.2,14.3z"/>
		<path class="st3" d="M25.1,12.7c-0.1,0-0.2,0.1-0.3,0.1l0.1,0L25.1,12.7z"/>
		<polygon class="st3" points="24.8,12.5 24.6,12.5 24.6,12.6 		"/>
		<path class="st3" d="M16,11.5l0.1,0.1c0.1-0.1,0.1-0.1,0.2-0.1C16.1,11.5,15.9,11.4,16,11.5z"/>
		<path class="st3" d="M21.3,11c-0.1-0.1-0.2-0.1-0.2-0.2C21.2,10.9,21.3,11.1,21.3,11z"/>
		<path class="st3" d="M13,21.3c0.1,0,0.1,0,0.1,0C13.1,21.3,13.1,21.2,13,21.3z"/>
		<path class="st3" d="M21.1,10.8c-0.1-0.1-0.2-0.1-0.3,0c0,0,0,0,0,0C20.9,10.8,21,10.8,21.1,10.8z"/>
		<path class="st3" d="M26.8,19.7c0,0,0,0.1,0,0.1C26.8,19.8,26.8,19.8,26.8,19.7z"/>
		<path class="st3" d="M23.5,11.7C23.6,11.7,23.5,11.6,23.5,11.7L23.5,11.7z"/>
		<path class="st3" d="M23.6,11.7C23.6,11.7,23.6,11.7,23.6,11.7C23.7,11.7,23.7,11.7,23.6,11.7z"/>
		<path class="st3" d="M23.5,11.7C23.5,11.6,23.4,11.6,23.5,11.7C23.4,11.6,23.5,11.7,23.5,11.7C23.5,11.7,23.5,11.7,23.5,11.7z"/>
		<path class="st3" d="M26.8,19.8c0,0.1-0.2,0-0.3-0.1c0.1-0.1,0.2-0.2,0.4-0.3c-0.3-0.1,0-0.4-0.2-0.5l0,0.1
			c-0.2-0.1-0.4-0.1-0.6,0c0-0.1,0-0.2,0-0.4c0.1-1.9-0.5-3.6-1.7-4.8c0,0,0,0,0,0l0.1-0.1c-0.1-0.1-0.1-0.1-0.1,0
			c-0.1-0.1-0.1-0.1-0.2-0.2c0.2,0,0.5-0.4,0.6-0.7c-0.1,0-0.1,0.1-0.3,0.1c0,0.1,0.1,0.4-0.1,0.4c-0.2-0.1-0.1-0.2-0.1-0.3
			c-0.1,0.2-0.3,0.1-0.5,0.2c-0.3-0.3-0.6-0.5-1-0.7c0,0,0,0,0-0.1l-0.1,0c0-0.2,0.3-0.1,0.2-0.3c0.2,0,0.5-0.1,0.6,0.1l-0.1,0.2
			c0-0.1,0-0.2-0.1-0.2c0.1,0,0.1,0.5,0.4,0.3l0-0.2c0.2,0,0.5-0.1,0.6,0.1c0.1-0.3-0.1,0,0-0.3c-0.1,0.4-0.4-0.3-0.5,0.1
			c0.1-0.4-0.1-0.3-0.2-0.6c0,0.1,0,0.2-0.2,0c0,0-0.1,0-0.1,0l0,0l0,0c0,0,0,0,0,0c0,0.1,0,0.1,0,0.2c-0.2,0.1-0.4,0-0.5,0
			c-0.1-0.1,0.1-0.1,0.1-0.2c-0.1,0-0.1,0-0.2,0.1c0.1-0.2-0.1-0.4,0.2-0.4l-0.2-0.1c-0.1-0.1-0.2-0.3-0.4-0.2
			c-0.1-0.1-0.3,0.1-0.2,0l-0.4,0l0,0c-0.3-0.1-0.8,0.1-1.1-0.3c-0.1,0-0.3,0.1-0.4,0l0-0.2c-0.2,0-0.5-0.2-0.5,0
			c-0.2-0.4-0.8-0.1-1-0.1l0,0.2c-0.2,0-0.4,0.1-0.6,0.2l0,0.2c-0.2,0.2-0.5,0-0.8,0.1c0-0.1,0.1-0.1,0.1-0.1
			c-0.5-0.3-0.6,0.5-1,0.4c0,0.1-0.1,0.1-0.2,0.1c0,0,0,0,0,0c0,0,0,0,0,0c0,0-0.1,0-0.1,0c0.1,0,0.1,0,0.1,0
			c-0.1,0-0.1,0.1-0.2,0.2l-0.1-0.2c0,0,0,0,0,0c-0.1,0,0,0.1,0.1,0.2c0,0,0,0.1,0,0.2c-0.2-0.2-0.1,0.2-0.4,0
			c0,0.2-0.3,0.4-0.1,0.7c0,0-0.1,0,0-0.1c-0.1,0-0.2,0.1-0.2,0.2l-0.2-0.2c0,0.1,0,0.3,0.1,0.4c-0.2,0-0.3,0-0.3-0.3
			c0,0.4-0.1,0.3-0.1,0.7l-0.1-0.1c-0.1,0.1,0,0.3-0.1,0.3c-0.4,0-0.7,0.8-1.2,1.2c0.5,0.1-0.3,0.1,0,0.3c-0.1,0-0.2,0-0.3-0.1
			c0,0.3-0.4,0.3-0.1,0.7c-0.1,0-0.1-0.1-0.2-0.1c0,0,0.1,0.1,0,0.1c-0.1,0-0.1-0.1-0.1-0.1c-0.1,0.3,0.2,0.4,0.5,0.6
			c-0.2,0.1-0.2,0.2,0,0.3c-0.1,0-0.2,0.1-0.2-0.1c0,0.1-0.3,0.6,0,0.6c-0.1,0,0,0.1,0,0.2c0,0.2-0.1,0.2-0.1,0.5l0.1-0.1
			c0.3,0.1,0.1,0.2,0.1,0.4l0,0c-0.2,0.4,0.1,0.2-0.2,0.6l0.2,0c0.4,0-0.2,0.4,0,0.6L13,19c0.1,0.1-0.5,0.4-0.5,0.6
			c0,0-0.1,0-0.1-0.1c-0.2,0.4,0.3,0,0.4,0.2c-0.1,0.1-0.4,0-0.3,0.2c-0.1,0.1,0.6,0.4,0.4,0.7c0.1-0.1,0.2-0.2,0.3-0.1
			c0.1,0.1-0.2,0.6,0.2,0.6c0,0,0,0.1-0.1,0.1c0.1,0.1,0.3,0.3,0.5,0.3c-0.5,0.5,0.7,0.5,0.2,0.9l0.3,0.3l-0.1,0
			c0.1,0.2,0.3,0.2,0.5,0.2c0,0.1-0.1,0.1-0.1,0.1c0.2,0.4,0.3,0.4,0.7,0.4l-0.1,0.2c0.1,0,0.3,0.6,0.8,0.6c0,0,0,0-0.1,0.1
			c0.3,0,0.4,0.3,0.6,0.4c0.2,0.2,0.4,0.3,0.6,0c0.1,0,0.2,0,0.3-0.1c-0.3-0.2,0.2-0.3,0.1-0.4c0.1,0,0.3,0.3,0.1,0.3l0,0
			c-0.2,0.3,0.4,0.3,0.3,0.5c0.7,0.2,1.4,0.5,2.2,0.5l-0.1-0.3l0.2,0c0.1,0.1,0.1,0.2-0.1,0.2c0.1,0.2,0.3-0.2,0.3-0.2
			c0.4,0.1-0.1,0.4,0,0.4l0.1,0l0,0c0.1-0.1,0.1-0.2,0.3-0.3c0.1,0,0.1,0.2,0.2,0.2c0,0,0,0,0.1,0l0.3,0l-0.2-0.2
			c0.1-0.1,0.3,0,0.1-0.3c0.1,0.2,0.4,0.1,0.7,0.1c0.3-0.1,0.5-0.2,0.6-0.2c0.1-0.2,0.3-0.3,0.5-0.4c-0.1,0-0.2-0.2,0-0.3
			c0.2,0.5,0.4,0,0.8,0.3c-0.3-0.1,0.4-0.4,0-0.6c0.2-0.1,0.1,0.2,0.3,0.2c0.2-0.4,0.8-0.5,1.1-0.9c0-0.1-0.2-0.1-0.2-0.2l0.4,0
			c0-0.1-0.3-0.3,0-0.3c-0.1,0-0.2,0-0.1-0.1c0.4-0.3,0.6-0.8,0.8-1.2c0.2-0.5,0.4-0.9,0.8-1.3C26.8,20,26.8,19.9,26.8,19.8z
			 M13.5,16.4C13.5,16.4,13.5,16.4,13.5,16.4C13.5,16.4,13.5,16.4,13.5,16.4C13.5,16.5,13.5,16.5,13.5,16.4
			c-0.1,0.1-0.2,0.1-0.2,0.1c0-0.1-0.1-0.2-0.1-0.3C13.3,16.2,13.4,16.3,13.5,16.4c-0.1-0.1-0.1-0.1-0.1-0.1c0,0,0.1,0,0.1,0
			C13.6,16.3,13.6,16.4,13.5,16.4z M15.3,13.5c0-0.1-0.1-0.2-0.1-0.4c0.1,0.1,0.1,0.2,0.2,0.3C15.4,13.4,15.4,13.5,15.3,13.5z
			 M22.7,11.4C22.7,11.4,22.7,11.4,22.7,11.4C22.6,11.3,22.6,11.3,22.7,11.4z M21.6,11.5c0.3,0,0,0.2,0.1,0.2c0.4,0.2,0.6-0.5,0.9,0
			c0.1,0.3-0.2,0.4-0.2,0.6c-0.2,0-0.2-0.3-0.4-0.3l0.1,0.2c-0.1,0-0.2,0.1-0.3,0c0,0,0,0.1,0,0.1c-0.3-0.1-0.6-0.2-0.9-0.2
			C21.1,11.7,21.3,11.5,21.6,11.5z M20,11.6c0,0.1,0,0.1,0,0.2c-0.1,0-0.1,0-0.2,0C19.8,11.7,19.9,11.6,20,11.6z M19.1,11.7
			C19.1,11.7,19.1,11.8,19.1,11.7c-0.1,0.1-0.1,0.1-0.2,0.1l0-0.3l0,0.3c-0.1,0-0.2,0-0.2,0c0-0.2-0.1-0.4,0-0.5
			C18.6,11.3,19,11.5,19.1,11.7z M17.3,11.6l0.1,0.1c0.1-0.1,0.1-0.2,0.2-0.2c0,0.2,0,0.4-0.1,0.7c-0.1,0-0.2,0.1-0.3,0.1
			C17.2,12,17.2,11.8,17.3,11.6z M20.9,25.3L20.9,25.3C21,25.2,21,25.3,20.9,25.3z M24,13.4C24,13.4,24,13.4,24,13.4L24,13.4
			C24.1,13.4,24.1,13.4,24,13.4z M24.1,13.5c0.1,0,0.2,0,0.2,0.2C24.2,13.6,24.2,13.5,24.1,13.5z"/>
		<path class="st3" d="M24.1,12.1C24.2,12.1,24.2,12,24.1,12.1L24.1,12C24.1,12,24.1,12.1,24.1,12.1z"/>
		<path class="st3" d="M24,12.6c-0.1,0.1,0,0.1,0.1,0.2c0,0,0,0,0,0C24.2,12.7,24.1,12.6,24,12.6z"/>
		<path class="st3" d="M24.1,12.8C24.1,12.9,24.2,12.9,24.1,12.8C24.3,12.8,24.2,12.9,24.1,12.8z"/>
		<path class="st3" d="M23.2,11.6c0,0.1,0.1-0.2,0.1-0.1C23.5,11.4,22.9,11.6,23.2,11.6z"/>
		<polygon class="st3" points="23.7,13.1 23.8,12.9 23.6,13 		"/>
		<path class="st3" d="M23.1,12.5l0.1,0.1c0,0,0,0,0.1,0C23.2,12.6,23.1,12.5,23.1,12.5z"/>
		<path class="st3" d="M23.4,12.7c0,0-0.1,0-0.1,0C23.3,12.7,23.4,12.7,23.4,12.7z"/>
		<path class="st3" d="M21.4,11.9c0.1,0,0.1,0,0.1-0.1l-0.2,0C21.3,11.9,21.3,11.9,21.4,11.9z"/>
		<polygon class="st3" points="27.1,19.2 27.2,19 27.1,19.1 		"/>
		<path class="st3" d="M27.1,18.9l-0.2-0.1c0,0,0,0.1,0,0.1L27.1,18.9z"/>
	</g>
	<g>
		<path class="st2" d="M19.4,13.8C19.4,13.7,19.3,13.7,19.4,13.8C19.4,13.8,19.4,13.7,19.4,13.8z"/>
		<polygon class="st2" points="19.2,13.3 19.1,13.2 19.2,13.3 		"/>
		<path class="st2" d="M19.1,13.1l0.1,0c0-0.1-0.1-0.2-0.1-0.3C19,12.9,19.2,13,19.1,13.1L19.1,13.1z"/>
		<path class="st2" d="M19.3,12.6C19.3,12.6,19.3,12.6,19.3,12.6C19.3,12.6,19.3,12.5,19.3,12.6C19.3,12.6,19.3,12.5,19.3,12.6z"/>
		<path class="st2" d="M19.3,12.6C19.4,12.6,19.4,12.5,19.3,12.6L19.3,12.6z"/>
		<path class="st2" d="M19.3,12.3C19.3,12.3,19.3,12.3,19.3,12.3L19.3,12.3C19.3,12.4,19.3,12.3,19.3,12.3z"/>
		<path class="st2" d="M19.1,12.3L19.1,12.3C19.2,12.4,19.2,12.3,19.1,12.3z"/>
		<path class="st2" d="M19.2,12.4C19.1,12.4,19.2,12.4,19.2,12.4L19.2,12.4C19.1,12.4,19.1,12.4,19.2,12.4z"/>
		<path class="st2" d="M19.2,12.5C19.2,12.5,19.2,12.5,19.2,12.5C19.2,12.6,19.3,12.6,19.2,12.5z"/>
		<path class="st2" d="M19,12.8L19,12.8L19,12.8C19,12.9,19,12.8,19,12.8z"/>
		<path class="st2" d="M19.1,12C19.1,12,19.1,12,19.1,12l0,0.1C19.1,12,19.1,12,19.1,12z"/>
		<path class="st2" d="M19,12L19,12C19,12.1,19,12.1,19,12z"/>
		<polygon class="st2" points="19,12.4 19,12.4 19.1,12.4 		"/>
		<polygon class="st2" points="19,11.7 19.1,11.7 18.9,11.7 		"/>
		<path class="st2" d="M18.9,11.6C18.9,11.6,18.9,11.5,18.9,11.6c0.1-0.1,0-0.1-0.1-0.1C18.9,11.5,18.9,11.5,18.9,11.6z"/>
		<path class="st2" d="M19,11.8L19,11.8C18.9,11.9,18.9,11.9,19,11.8C18.9,11.9,19,11.8,19,11.8z"/>
		<path class="st2" d="M18.9,11.8C18.9,11.8,18.9,11.8,18.9,11.8L18.9,11.8C18.9,11.8,18.9,11.8,18.9,11.8z"/>
		<path class="st2" d="M19,12.2c-0.1,0-0.1-0.1-0.2,0C18.9,12.2,18.9,12.2,19,12.2z"/>
		<path class="st2" d="M18.9,12C18.9,12,18.9,12,18.9,12C18.9,12,18.9,12,18.9,12C18.9,12,18.9,12,18.9,12z"/>
		<polygon class="st2" points="18.8,11.9 18.9,12 18.9,11.9 		"/>
		<path class="st2" d="M18.8,11.6C18.7,11.6,18.7,11.5,18.8,11.6C18.7,11.6,18.7,11.6,18.8,11.6C18.7,11.6,18.8,11.6,18.8,11.6z"/>
		<polygon class="st2" points="18.4,11.2 18.4,11.2 18.4,11.2 		"/>
		<path class="st2" d="M18.7,11.6C18.7,11.7,18.7,11.7,18.7,11.6C18.8,11.7,18.7,11.7,18.7,11.6C18.7,11.6,18.7,11.6,18.7,11.6z"/>
		<path class="st2" d="M18.6,11.4C18.6,11.4,18.6,11.4,18.6,11.4C18.6,11.4,18.7,11.4,18.6,11.4z"/>
		<path class="st2" d="M18.8,11.7C18.8,11.7,18.8,11.7,18.8,11.7C18.8,11.7,18.8,11.7,18.8,11.7z"/>
		<path class="st2" d="M18.8,11.7C18.8,11.7,18.8,11.7,18.8,11.7C18.8,11.7,18.8,11.7,18.8,11.7C18.8,11.7,18.8,11.7,18.8,11.7z"/>
		<path class="st2" d="M18.5,11.3L18.5,11.3c0,0,0-0.1,0-0.1c-0.1,0-0.1,0-0.1,0L18.5,11.3L18.5,11.3z"/>
		<path class="st2" d="M18.6,11.5c-0.1,0-0.1,0-0.2,0.1c0.1,0.1,0.1,0,0.1,0C18.5,11.5,18.6,11.6,18.6,11.5
			C18.6,11.5,18.6,11.5,18.6,11.5C18.6,11.5,18.6,11.5,18.6,11.5L18.6,11.5L18.6,11.5L18.6,11.5C18.6,11.5,18.6,11.5,18.6,11.5
			L18.6,11.5C18.6,11.5,18.6,11.5,18.6,11.5C18.6,11.4,18.6,11.4,18.6,11.5L18.6,11.5L18.6,11.5C18.6,11.4,18.6,11.4,18.6,11.5
			C18.5,11.4,18.6,11.4,18.6,11.5z"/>
		<path class="st2" d="M18.7,12.2C18.7,12.2,18.7,12.2,18.7,12.2C18.7,12.2,18.7,12.2,18.7,12.2z"/>
		<path class="st2" d="M18.7,12.2C18.7,12.2,18.7,12.2,18.7,12.2C18.7,12.2,18.7,12.2,18.7,12.2C18.7,12.2,18.8,12.3,18.7,12.2
			L18.7,12.2c0.1,0,0.1-0.1,0.1-0.1C18.8,12.1,18.7,12.1,18.7,12.2z"/>
		<path class="st2" d="M18.5,11.8L18.5,11.8c0.1,0,0.1,0,0.1,0C18.6,11.8,18.6,11.8,18.5,11.8L18.5,11.8z"/>
		<path class="st2" d="M18.5,11.1c0,0-0.1,0-0.1,0L18.5,11.1L18.5,11.1z"/>
		<polygon class="st2" points="18.3,11 18.3,11.1 18.3,11.1 		"/>
		<path class="st2" d="M14.6,10.6L14.6,10.6c0.1,0,0.1,0,0.1,0C14.6,10.6,14.5,10.6,14.6,10.6z"/>
		<path class="st2" d="M16.9,10.4C16.8,10.4,16.8,10.4,16.9,10.4C16.8,10.4,16.8,10.5,16.9,10.4z"/>
		<path class="st2" d="M13.3,14.8C13.3,14.8,13.4,14.8,13.3,14.8C13.4,14.8,13.3,14.8,13.3,14.8z"/>
		<path class="st2" d="M16.8,10.3c0,0-0.1-0.1-0.1,0c0,0,0,0,0,0C16.7,10.3,16.7,10.3,16.8,10.3z"/>
		<path class="st2" d="M19.2,14.1C19.2,14.2,19.2,14.2,19.2,14.1C19.2,14.2,19.2,14.2,19.2,14.1z"/>
		<path class="st2" d="M17.8,10.7C17.8,10.7,17.8,10.7,17.8,10.7L17.8,10.7z"/>
		<path class="st2" d="M17.8,10.7C17.8,10.7,17.9,10.7,17.8,10.7C17.9,10.7,17.9,10.7,17.8,10.7z"/>
		<path class="st2" d="M17.8,10.7C17.8,10.7,17.8,10.7,17.8,10.7C17.8,10.7,17.8,10.7,17.8,10.7C17.8,10.7,17.8,10.7,17.8,10.7z"/>
		<path class="st2" d="M19.2,14.2c0,0-0.1,0-0.1,0c0,0,0.1-0.1,0.2-0.1c-0.1-0.1,0-0.2-0.1-0.2l0,0.1c-0.1,0-0.2,0-0.2,0
			c0-0.1,0-0.1,0-0.2c0.1-0.8-0.2-1.5-0.7-2.1c0,0,0,0,0,0l0,0c0,0-0.1,0-0.1,0c0,0,0,0-0.1-0.1c0.1,0,0.2-0.2,0.3-0.3
			c0,0,0,0-0.1,0c0,0,0,0.2,0,0.2c-0.1,0,0-0.1,0-0.1c0,0.1-0.1,0-0.2,0.1c-0.1-0.1-0.3-0.2-0.4-0.3c0,0,0,0,0,0l0,0
			c0-0.1,0.1,0,0.1-0.1c0.1,0,0.2,0,0.3,0l0,0.1c0,0,0-0.1-0.1-0.1c0.1,0,0,0.2,0.2,0.1l0-0.1c0.1,0,0.2,0,0.3,0c0-0.1,0,0,0-0.1
			c0,0.2-0.2-0.1-0.2,0c0-0.2-0.1-0.1-0.1-0.3c0,0,0,0.1-0.1,0c0,0,0,0,0,0l0,0l0,0c0,0,0,0,0,0c0,0,0,0,0,0.1c-0.1,0.1-0.2,0-0.2,0
			c0,0,0,0,0-0.1c0,0-0.1,0-0.1,0c0-0.1-0.1-0.2,0.1-0.2l-0.1,0c0-0.1-0.1-0.1-0.2-0.1c0,0-0.1,0-0.1,0l-0.2,0l0,0
			c-0.1-0.1-0.3,0-0.5-0.1c-0.1,0-0.1,0-0.2,0l0-0.1c-0.1,0-0.2-0.1-0.2,0c-0.1-0.2-0.3,0-0.4-0.1l0,0.1c-0.1,0-0.2,0-0.2,0.1l0,0.1
			c-0.1,0.1-0.2,0-0.3,0c0,0,0,0,0.1,0c-0.2-0.1-0.3,0.2-0.4,0.2c0,0,0,0-0.1,0c0,0,0,0,0,0c0,0,0,0,0,0c0,0,0,0-0.1,0
			c0,0,0,0,0.1,0c0,0-0.1,0-0.1,0.1l-0.1-0.1c0,0,0,0,0,0c-0.1,0,0,0,0,0.1c0,0,0,0,0,0.1c-0.1-0.1-0.1,0.1-0.2,0
			c0,0.1-0.1,0.2-0.1,0.3c0,0,0,0,0,0c0,0-0.1,0-0.1,0.1l-0.1-0.1c0,0.1,0,0.1,0,0.2c-0.1,0-0.1,0-0.1-0.1c0,0.2-0.1,0.1,0,0.3
			l0-0.1c0,0,0,0.1-0.1,0.1c-0.2,0-0.3,0.3-0.5,0.5c0.2,0.1-0.1,0.1,0,0.1c0,0-0.1,0-0.1,0c0,0.1-0.2,0.1-0.1,0.3
			c-0.1,0-0.1-0.1-0.1,0c0,0,0,0.1,0,0.1c0,0,0,0,0-0.1c0,0.1,0.1,0.2,0.2,0.2c-0.1,0-0.1,0.1,0,0.1c0,0-0.1,0-0.1,0
			c0,0-0.1,0.3,0,0.3c0,0,0,0.1,0,0.1c0,0.1,0,0.1,0,0.2l0,0c0.1,0,0,0.1,0,0.2l0,0c-0.1,0.2,0,0.1-0.1,0.2l0.1,0
			c0.2,0-0.1,0.2,0,0.3l0,0c0.1,0-0.2,0.2-0.2,0.3c0,0,0,0,0,0c-0.1,0.2,0.1,0,0.2,0.1c-0.1,0-0.2,0-0.1,0.1c0,0.1,0.2,0.2,0.2,0.3
			c0,0,0.1-0.1,0.1,0c0,0.1-0.1,0.3,0.1,0.3c0,0,0,0,0,0c0.1,0,0.1,0.1,0.2,0.1c-0.2,0.2,0.3,0.2,0.1,0.4l0.1,0.1l0,0
			c0.1,0.1,0.1,0.1,0.2,0.1c0,0,0,0,0,0c0.1,0.2,0.1,0.2,0.3,0.2l0,0.1c0.1,0,0.1,0.3,0.3,0.3c0,0,0,0,0,0c0.1,0,0.2,0.1,0.3,0.2
			c0.1,0.1,0.2,0.1,0.3,0c0,0,0.1,0,0.1,0c-0.1-0.1,0.1-0.1,0-0.2c0.1,0,0.1,0.1,0,0.1l0,0c-0.1,0.1,0.2,0.1,0.1,0.2
			c0.3,0.1,0.6,0.2,0.9,0.2l0-0.1l0.1,0c0,0,0,0.1,0,0.1c0,0.1,0.1-0.1,0.1-0.1c0.2,0,0,0.2,0,0.2l0.1,0l0,0c0-0.1,0-0.1,0.1-0.1
			c0.1,0,0,0.1,0.1,0.1c0,0,0,0,0,0l0.1,0l-0.1-0.1c0-0.1,0.1,0,0-0.1c0.1,0.1,0.2,0.1,0.3,0c0.1,0,0.2-0.1,0.2-0.1
			c0-0.1,0.1-0.1,0.2-0.2c0,0-0.1-0.1,0-0.1c0.1,0.2,0.2,0,0.3,0.1c-0.1-0.1,0.2-0.2,0-0.2C18,15.9,18,16,18,16
			c0.1-0.2,0.3-0.2,0.5-0.4c0,0-0.1,0-0.1-0.1l0.2,0c0,0-0.1-0.1,0-0.1c0,0-0.1,0-0.1,0c0.2-0.1,0.3-0.3,0.4-0.5
			C19,14.6,19.1,14.4,19.2,14.2C19.2,14.3,19.2,14.3,19.2,14.2z M13.5,12.7C13.5,12.7,13.5,12.7,13.5,12.7
			C13.5,12.7,13.5,12.7,13.5,12.7C13.5,12.8,13.5,12.8,13.5,12.7C13.5,12.8,13.5,12.8,13.5,12.7c-0.1,0-0.1,0-0.1-0.1
			C13.4,12.7,13.5,12.7,13.5,12.7C13.5,12.7,13.5,12.7,13.5,12.7C13.5,12.7,13.5,12.7,13.5,12.7C13.6,12.7,13.5,12.7,13.5,12.7z
			 M14.3,11.5c0-0.1,0-0.1-0.1-0.2C14.3,11.4,14.3,11.4,14.3,11.5C14.3,11.5,14.3,11.5,14.3,11.5z M17.4,10.6
			C17.4,10.6,17.4,10.6,17.4,10.6C17.4,10.6,17.4,10.6,17.4,10.6z M17,10.6C17.1,10.6,17,10.7,17,10.6c0.2,0.2,0.3-0.1,0.4,0.1
			c0,0.1-0.1,0.2-0.1,0.2c-0.1,0-0.1-0.1-0.2-0.1l0.1,0.1c0,0-0.1,0-0.1,0c0,0,0,0,0,0c-0.1,0-0.3-0.1-0.4-0.1
			C16.8,10.7,16.9,10.7,17,10.6z M16.3,10.7C16.3,10.7,16.3,10.7,16.3,10.7C16.3,10.8,16.2,10.8,16.3,10.7
			C16.2,10.7,16.3,10.7,16.3,10.7z M15.9,10.7C15.9,10.7,15.9,10.8,15.9,10.7C15.9,10.8,15.9,10.8,15.9,10.7l-0.1-0.1l0,0.1
			c0,0-0.1,0-0.1,0c0-0.1,0-0.2,0-0.2C15.7,10.6,15.9,10.7,15.9,10.7z M15.1,10.7L15.1,10.7c0.1,0,0.1,0,0.1,0c0,0.1,0,0.2,0,0.3
			c0,0-0.1,0-0.1,0.1C15.1,10.9,15.1,10.7,15.1,10.7z M16.7,16.6L16.7,16.6C16.7,16.5,16.7,16.5,16.7,16.6z M18,11.5
			C18,11.5,18,11.5,18,11.5L18,11.5C18,11.5,18,11.5,18,11.5z M18.1,11.5C18.1,11.5,18.1,11.5,18.1,11.5
			C18.1,11.5,18.1,11.5,18.1,11.5z"/>
		<path class="st2" d="M18.1,10.9C18.1,10.9,18.1,10.9,18.1,10.9L18.1,10.9C18.1,10.9,18.1,10.9,18.1,10.9z"/>
		<path class="st2" d="M18,11.1C18,11.2,18,11.2,18,11.1C18,11.2,18,11.2,18,11.1C18.1,11.1,18.1,11.1,18,11.1z"/>
		<path class="st2" d="M18.1,11.2C18.1,11.2,18.1,11.2,18.1,11.2C18.1,11.2,18.1,11.2,18.1,11.2z"/>
		<path class="st2" d="M17.7,10.7C17.7,10.7,17.7,10.6,17.7,10.7C17.8,10.6,17.5,10.7,17.7,10.7z"/>
		<polygon class="st2" points="17.9,11.3 17.9,11.3 17.9,11.3 		"/>
		<path class="st2" d="M17.6,11.1L17.6,11.1C17.7,11.1,17.7,11.1,17.6,11.1C17.7,11.1,17.6,11.1,17.6,11.1z"/>
		<path class="st2" d="M17.8,11.1C17.8,11.1,17.7,11.1,17.8,11.1C17.7,11.1,17.8,11.2,17.8,11.1z"/>
		<path class="st2" d="M16.9,10.8C16.9,10.8,16.9,10.8,16.9,10.8L16.9,10.8C16.8,10.8,16.9,10.8,16.9,10.8z"/>
		<polygon class="st2" points="19.3,13.9 19.4,13.9 19.3,13.9 		"/>
		<path class="st2" d="M19.3,13.8L19.3,13.8c-0.1,0-0.1,0-0.1,0L19.3,13.8z"/>
	</g>
</g>
</svg>
